{"glyphs":{":":{"x_min":0,"x_max":306,"ha":306,"o":"m 116 23 q 116 52 126 63 q 137 75 162 75 q 178 75 184 69 q 190 62 190 42 q 190 14 179 2 q 168 -10 143 -10 q 127 -10 122 -4 q 116 2 116 23 z m 116 402 q 116 431 126 442 q 137 454 162 454 q 178 454 184 448 q 190 441 190 421 q 190 393 179 381 q 168 369 143 369 q 127 369 122 375 q 116 382 116 402 z"},"$":{"x_min":0,"x_max":611,"ha":611,"o":"m 329 361 l 328 646 q 319 647 311 648 q 302 649 293 649 q 286 649 279 648 q 271 647 265 646 l 265 378 q 292 370 323 362 q 327 361 329 361 z m 244 384 l 244 641 q 199 625 175 591 q 150 557 150 512 q 150 466 174 434 q 198 401 244 384 z m 329 21 l 329 297 q 314 301 283 311 q 271 314 265 316 l 265 20 q 277 19 283 18 q 289 18 294 18 q 303 18 312 19 q 320 20 329 21 z m 350 291 l 350 25 q 400 41 427 79 q 453 117 453 176 q 453 218 427 247 q 402 275 350 291 z m 92 20 q 93 32 93 46 q 94 60 94 88 q 94 111 94 122 q 93 134 93 144 l 108 144 l 112 90 q 147 62 180 45 q 213 29 244 23 l 244 321 q 167 340 130 380 q 94 420 94 485 q 94 552 132 597 q 170 642 244 662 l 244 764 l 265 764 l 265 666 q 275 668 287 669 q 298 670 312 670 l 329 670 l 329 764 l 350 764 l 350 669 q 389 666 418 662 q 447 659 473 654 q 471 634 471 624 q 471 615 471 606 q 471 591 472 560 l 473 557 l 458 557 l 452 598 q 425 616 400 627 q 375 638 350 643 l 350 356 q 434 338 474 296 q 515 254 515 186 q 515 119 471 71 q 428 23 350 3 l 350 -116 l 329 -116 l 329 -1 q 313 -3 297 -4 q 282 -5 265 -5 l 265 -116 l 244 -116 l 244 -5 q 212 -3 175 3 q 137 9 92 20 z"},"?":{"x_min":0,"x_max":556,"ha":556,"o":"m 241 -7 q 225 -7 218 1 q 212 9 212 32 q 212 55 221 65 q 231 74 254 74 q 272 74 278 67 q 284 61 284 41 q 284 15 274 4 q 264 -7 241 -7 z m 270 163 q 263 155 254 151 q 246 147 234 147 q 216 147 205 159 q 195 170 195 191 q 195 219 208 249 q 222 278 249 312 l 259 324 q 388 481 388 568 q 388 626 352 665 q 315 703 259 703 q 219 703 183 685 q 147 667 126 637 l 117 592 l 104 592 q 103 624 102 640 q 101 657 99 670 q 141 700 187 714 q 233 729 285 729 q 365 729 412 688 q 460 646 460 578 q 460 528 434 482 q 408 436 340 369 q 277 307 260 277 q 242 248 242 217 q 242 198 249 185 q 256 171 270 163 z"},"<":{"x_min":0,"x_max":833,"ha":833,"o":"m 704 554 l 704 501 l 205 298 l 704 96 l 704 43 l 129 278 l 129 318 z"},"'":{"x_min":0,"x_max":169,"ha":169,"o":"m 92 424 l 77 424 l 47 646 q 47 647 47 648 q 45 660 45 666 q 45 689 55 701 q 65 714 84 714 q 103 714 113 702 q 123 690 123 667 q 123 659 123 655 q 123 650 122 646 z"},"=":{"x_min":0,"x_max":833,"ha":833,"o":"m 124 231 l 709 231 l 709 183 l 124 183 z m 124 413 l 709 413 l 709 365 l 124 365 z"},"a":{"x_min":0,"x_max":544,"ha":544,"o":"m 379 64 l 379 255 q 344 264 314 269 q 285 273 261 273 q 191 273 158 243 q 125 214 125 152 q 125 87 157 51 q 189 14 246 14 q 282 14 315 27 q 348 39 379 64 z m 379 39 q 320 10 279 -2 q 238 -14 200 -14 q 134 -14 92 25 q 50 65 50 126 q 50 201 105 245 q 161 289 257 289 q 284 289 314 285 q 344 281 378 272 q 378 358 341 410 q 303 461 241 461 q 209 461 194 447 q 178 433 178 403 l 165 403 l 165 478 q 176 479 188 479 q 200 479 223 479 q 287 479 324 471 q 361 462 384 444 q 415 419 427 381 q 440 343 440 242 l 440 232 l 440 22 l 508 16 l 508 0 l 379 0 z"},"L":{"x_min":0,"x_max":576,"ha":576,"o":"m 60 0 l 60 19 l 134 22 q 139 80 142 166 q 145 252 145 356 q 145 456 142 543 q 139 630 134 691 l 60 694 l 60 713 q 109 712 134 711 q 158 711 178 711 q 199 711 223 711 q 248 712 292 713 l 292 694 l 216 691 q 211 644 209 549 q 206 453 206 330 q 206 255 208 180 q 210 104 215 25 q 225 24 237 24 q 249 24 271 24 q 344 24 404 34 q 464 44 512 65 l 519 127 l 535 127 l 535 0 q 495 1 447 1 q 399 2 302 2 q 204 2 153 1 q 103 1 60 0 z"},"3":{"x_min":0,"x_max":611,"ha":611,"o":"m 91 50 l 105 50 l 105 22 q 126 10 147 5 q 167 -1 189 -1 q 291 -1 358 67 q 425 135 425 239 q 425 321 377 368 q 329 415 245 415 q 220 415 196 409 q 172 404 149 392 l 137 402 q 193 460 245 519 q 296 577 344 638 q 238 638 192 632 q 146 625 122 609 l 118 565 l 105 565 q 105 608 105 629 q 104 649 104 665 q 146 662 188 661 q 229 659 270 659 q 311 659 351 661 q 392 662 431 665 l 434 653 q 380 597 331 542 q 282 486 237 430 q 250 432 265 433 q 279 434 295 434 q 393 434 446 386 q 500 338 500 251 q 500 200 477 154 q 453 108 405 65 q 354 19 288 -3 q 223 -25 139 -25 q 127 -25 114 -23 q 100 -22 84 -19 z"},";":{"x_min":0,"x_max":306,"ha":306,"o":"m 119 307 q 119 335 130 347 q 141 359 166 359 q 182 359 188 352 q 194 346 194 326 q 194 298 183 286 q 172 274 146 274 q 130 274 125 281 q 119 287 119 307 z m 92 -155 q 105 -116 112 -82 q 118 -47 118 -14 q 118 0 117 13 q 116 25 114 37 q 129 45 146 55 q 162 65 179 76 l 188 67 q 187 37 170 -16 q 152 -68 120 -141 z"},"J":{"x_min":0,"x_max":400,"ha":400,"o":"m -28 -28 l -13 -28 l -13 -47 q 0 -67 17 -77 q 34 -86 56 -86 q 132 -86 166 -12 q 199 62 199 236 q 199 404 196 529 q 193 653 188 691 l 114 694 l 114 713 q 162 712 186 711 q 210 711 229 711 q 250 711 274 711 q 299 712 341 713 l 341 694 l 273 691 q 268 650 265 562 q 263 473 263 303 q 263 297 264 265 q 264 233 264 207 q 264 112 253 64 q 242 17 216 -19 q 185 -62 138 -85 q 91 -108 34 -108 q 18 -108 2 -105 q -14 -102 -28 -96 z"},"V":{"x_min":0,"x_max":700,"ha":700,"o":"m 325 -12 l 319 -14 q 303 40 282 101 q 261 161 220 267 l 125 516 q 98 586 81 625 q 63 663 48 691 l -22 694 l -22 713 q 8 711 38 711 q 68 710 97 710 q 126 710 155 711 q 185 711 213 713 l 213 694 l 141 691 q 148 647 164 592 q 180 538 204 475 l 286 260 l 294 237 q 326 153 347 95 q 466 331 531 487 q 597 644 597 689 l 597 691 l 537 694 l 537 713 q 576 712 596 711 q 616 711 632 711 q 648 711 668 711 q 688 712 724 713 l 724 694 l 670 691 q 646 659 616 605 q 587 550 524 418 l 388 134 q 384 125 376 108 q 337 26 325 -12 z"},"\"":{"x_min":0,"x_max":328,"ha":328,"o":"m 251 424 l 236 424 l 206 646 q 205 655 204 659 q 204 663 204 667 q 204 689 214 702 q 225 714 244 714 q 263 714 273 701 q 283 689 283 666 q 283 660 281 648 q 281 647 281 646 z m 92 424 l 77 424 l 47 646 q 47 647 47 648 q 45 660 45 666 q 45 689 55 701 q 65 714 84 714 q 103 714 114 702 q 124 689 124 667 q 124 662 123 649 q 122 647 122 646 z"},"7":{"x_min":0,"x_max":611,"ha":611,"o":"m 148 -3 q 266 210 347 376 q 428 542 458 631 l 452 631 q 391 633 363 633 q 271 633 218 625 q 165 617 141 600 l 135 556 l 121 556 l 121 662 q 158 662 228 662 q 297 661 331 661 q 366 661 433 662 q 500 662 532 662 l 534 655 q 398 409 324 238 q 250 66 250 3 l 250 0 l 224 0 q 205 0 186 -1 q 167 -1 148 -3 z"},"S":{"x_min":0,"x_max":600,"ha":600,"o":"m 78 8 q 80 35 81 53 q 82 70 82 85 q 82 93 82 111 q 81 129 81 138 l 98 138 l 104 68 q 155 38 205 22 q 254 7 299 7 q 373 7 416 52 q 459 97 459 175 q 459 201 452 223 q 445 244 431 263 q 401 301 296 327 q 266 334 249 339 q 161 363 121 404 q 80 446 80 512 q 80 609 149 669 q 219 730 331 730 q 360 730 398 725 q 436 720 482 710 q 480 689 480 670 q 479 650 479 632 l 479 608 l 460 608 l 457 655 q 422 680 383 693 q 345 706 304 706 q 232 706 190 664 q 147 622 147 552 q 147 491 181 452 q 215 413 285 395 q 298 392 322 386 q 424 361 448 344 q 487 317 504 284 q 522 251 522 205 q 522 106 456 45 q 391 -16 284 -16 q 246 -16 197 -10 q 148 -4 78 8 z"},"}":{"x_min":0,"x_max":500,"ha":500,"o":"m 87 740 l 92 740 q 197 740 237 704 q 276 668 276 571 l 276 465 q 276 388 304 360 q 333 332 414 324 l 414 297 q 333 291 305 261 q 276 232 276 156 l 276 50 q 276 -47 237 -83 q 197 -119 92 -119 l 87 -119 l 87 -95 q 160 -94 186 -68 q 212 -42 212 33 l 212 104 q 212 214 242 255 q 273 295 356 310 q 273 325 242 365 q 212 406 212 516 l 212 587 q 212 663 186 689 q 160 715 87 716 z"},"Z":{"x_min":0,"x_max":681,"ha":681,"o":"m 524 688 l 484 688 q 362 688 269 679 q 176 669 103 650 l 98 601 l 82 601 l 82 729 l 98 729 l 98 713 q 145 712 200 712 q 255 712 364 712 q 473 712 527 712 q 581 712 627 713 l 631 708 q 591 661 548 604 q 504 547 456 480 l 356 341 q 293 253 239 175 q 185 96 137 25 q 150 25 176 24 q 201 24 213 24 q 347 24 441 33 q 535 42 606 62 l 611 129 l 628 129 l 628 -16 l 611 -16 l 611 0 l 608 0 q 415 2 320 2 q 269 2 209 2 q 149 1 33 0 l 29 5 q 69 52 112 109 q 156 166 204 233 l 304 372 q 375 471 428 547 q 480 623 524 688 z"},"x":{"x_min":0,"x_max":597,"ha":597,"o":"m 11 0 l 11 16 l 75 22 q 106 49 137 80 q 167 111 199 146 l 274 230 l 153 371 q 123 407 108 423 q 93 439 81 450 l 39 456 l 39 472 l 42 472 q 103 470 134 470 q 150 470 170 470 q 189 471 229 472 l 229 456 l 172 450 q 192 420 213 393 q 233 367 252 344 l 311 277 l 359 333 q 389 369 410 399 q 430 430 438 450 l 386 456 l 386 472 l 389 472 q 444 470 470 470 q 485 470 503 470 q 521 471 553 472 l 553 456 l 497 450 q 466 421 440 394 q 414 367 392 341 l 324 262 l 447 112 q 461 95 521 31 l 529 22 l 583 16 l 583 0 q 557 1 530 2 q 502 3 474 3 q 446 3 417 2 q 389 1 359 0 l 359 16 l 432 22 q 421 42 407 62 q 393 83 367 114 l 284 215 l 222 144 q 196 115 176 84 q 155 54 139 22 l 206 16 l 206 0 q 193 0 176 1 q 158 1 120 1 q 78 1 55 1 q 32 0 11 0 z"},")":{"x_min":0,"x_max":370,"ha":370,"o":"m 56 729 q 155 694 208 587 q 261 481 261 317 q 261 153 208 46 q 155 -61 56 -96 l 56 -74 q 130 -39 167 58 q 203 155 203 317 q 203 479 167 575 q 130 672 56 707 z"},"&":{"x_min":0,"x_max":917,"ha":917,"o":"m 737 320 q 737 318 738 314 q 741 291 741 281 q 741 240 724 198 q 706 157 674 123 q 615 60 526 24 q 437 -11 338 -11 q 221 -11 151 39 q 81 89 81 172 q 81 238 126 285 q 171 333 247 344 q 211 353 192 378 q 173 402 173 440 q 173 516 242 569 q 312 622 415 622 q 426 622 453 619 l 456 618 q 454 606 453 594 q 452 582 452 568 q 452 558 452 552 q 453 547 453 543 l 443 543 l 440 557 q 436 579 421 588 q 406 597 375 597 q 317 597 278 554 q 239 512 239 450 q 239 400 262 377 q 285 353 332 353 q 341 353 345 353 q 350 354 353 354 l 355 332 q 344 333 333 334 q 323 335 312 335 q 239 335 197 296 q 155 256 155 188 q 155 108 209 60 q 264 12 356 12 q 430 12 499 40 q 568 68 616 117 q 647 149 666 190 q 684 232 684 270 q 684 280 682 292 q 681 305 677 318 q 669 318 654 317 q 629 316 622 316 q 546 316 516 328 q 487 341 480 372 l 482 380 q 503 410 532 424 q 562 439 600 439 q 650 439 685 413 q 719 388 732 341 l 736 341 q 860 348 899 353 q 883 338 869 325 q 854 313 841 302 q 830 312 809 316 q 788 320 751 320 z m 668 337 q 646 375 617 394 q 588 413 550 413 q 541 413 537 411 q 533 409 533 405 q 533 380 569 358 q 605 337 655 337 z"},"_":{"x_min":0,"x_max":500,"ha":500,"o":"m 0 -187 l 500 -187 l 500 -236 l 0 -236 z"},"v":{"x_min":0,"x_max":581,"ha":581,"o":"m 265 -8 q 206 154 154 271 q 102 388 61 450 l 9 456 l 9 472 q 47 471 67 470 q 86 470 104 470 q 135 470 202 472 l 205 472 l 205 456 l 138 450 q 183 348 221 258 q 259 167 292 84 q 306 109 332 154 q 468 391 473 450 l 417 456 l 417 472 l 420 472 q 475 470 501 470 q 517 470 534 470 q 551 471 580 472 l 580 456 l 537 450 q 451 326 384 209 q 316 92 274 -8 z"},"O":{"x_min":0,"x_max":882,"ha":882,"o":"m 448 4 q 589 4 673 95 q 756 187 756 341 q 756 511 669 610 q 582 709 433 709 q 290 709 208 619 q 125 529 125 374 q 125 205 213 104 q 301 4 448 4 z m 441 -16 q 346 -16 278 7 q 210 31 158 81 q 103 134 74 204 q 46 274 46 356 q 46 433 70 497 q 94 561 141 612 q 195 669 271 699 q 347 729 441 729 q 536 729 603 706 q 671 683 723 633 q 778 581 807 510 q 836 439 836 356 q 836 279 812 215 q 788 151 741 101 q 687 43 612 13 q 537 -16 441 -16 z"},"(":{"x_min":0,"x_max":370,"ha":370,"o":"m 316 -96 q 217 -61 164 46 q 111 153 111 317 q 111 481 164 587 q 217 694 316 729 l 316 707 q 242 672 205 575 q 169 479 169 317 q 169 154 205 58 q 242 -39 316 -74 z"},"C":{"x_min":0,"x_max":681,"ha":681,"o":"m 622 56 q 569 21 507 2 q 445 -16 378 -16 q 227 -16 136 81 q 46 178 46 339 q 46 423 75 500 q 104 576 155 627 q 208 680 274 705 q 341 730 432 730 q 466 730 506 726 q 545 722 591 713 l 591 595 l 574 595 l 574 651 q 538 679 496 692 q 453 706 403 706 q 270 706 198 615 q 126 524 126 353 q 126 195 199 105 q 273 14 399 14 q 458 14 513 31 q 568 49 622 85 z"},"W":{"x_min":0,"x_max":1032,"ha":1032,"o":"m 229 -11 q 200 171 162 347 q 124 523 77 691 l 13 694 l 13 713 q 54 712 75 711 q 96 711 114 711 q 132 711 155 711 q 178 712 223 713 l 223 694 l 165 691 q 167 607 194 468 q 220 329 270 139 q 311 228 412 425 q 514 623 554 729 l 567 729 q 579 627 686 318 q 726 200 748 134 q 768 193 804 297 q 914 615 914 681 l 914 691 l 852 694 l 852 713 q 890 712 911 711 q 932 711 949 711 q 967 711 988 711 q 1009 712 1047 713 l 1047 694 l 989 691 q 923 563 857 385 q 791 206 731 -10 l 719 -12 q 699 95 626 307 q 554 519 528 607 q 491 532 423 398 q 271 100 238 -11 z"},"A":{"x_min":0,"x_max":676,"ha":676,"o":"m -27 0 l -27 18 l 36 22 q 101 129 182 312 q 262 495 347 729 l 359 729 q 371 677 392 613 q 414 549 463 423 l 549 205 l 551 201 q 601 73 632 22 l 696 18 l 696 0 q 665 2 636 4 q 607 5 581 5 q 555 5 527 4 q 499 2 465 0 l 465 18 l 541 22 q 533 57 513 112 q 493 167 459 247 q 434 248 405 249 q 376 249 318 249 q 260 249 231 249 q 202 248 177 247 q 151 182 135 125 q 119 69 111 22 l 189 18 l 189 0 q 161 1 134 2 q 107 3 80 3 q 53 3 26 2 q -1 1 -27 0 z m 190 276 q 226 274 263 273 q 300 272 342 272 q 362 272 385 272 q 408 273 450 274 q 415 362 384 440 q 354 518 325 592 q 301 537 273 472 q 246 407 190 276 z"},"f":{"x_min":0,"x_max":352,"ha":352,"o":"m 47 0 l 47 16 l 127 22 q 131 77 133 134 q 135 190 135 262 l 135 336 l 135 456 l 47 456 l 47 472 l 135 472 q 133 487 133 500 q 132 514 132 527 q 132 648 197 713 q 262 779 381 779 q 393 779 422 776 q 429 775 433 775 l 433 709 l 420 709 l 420 727 q 402 739 381 745 q 360 751 335 751 q 264 751 228 698 q 193 646 193 538 l 193 472 l 376 472 l 331 433 q 317 445 299 451 q 281 456 245 456 l 229 456 l 193 456 l 193 175 q 193 99 194 70 q 196 41 199 22 l 280 16 l 280 0 q 253 2 224 3 q 194 4 161 4 q 129 4 101 3 q 73 2 47 0 z"},"Q":{"x_min":0,"x_max":882,"ha":882,"o":"m 860 -53 q 807 -90 767 -108 q 727 -126 699 -126 q 668 -126 615 -107 q 562 -87 439 -29 q 358 -15 302 1 q 245 17 218 34 q 133 89 90 171 q 46 252 46 356 q 46 433 70 497 q 94 561 141 612 q 195 669 271 699 q 347 729 441 729 q 536 729 603 706 q 671 683 723 633 q 778 581 807 510 q 836 439 836 356 q 836 219 761 123 q 686 28 551 -5 q 626 -45 669 -61 q 711 -76 742 -76 q 766 -76 792 -67 q 818 -58 849 -39 z m 448 4 q 589 4 673 95 q 756 187 756 341 q 756 511 669 610 q 582 708 433 708 q 290 708 207 619 q 125 529 125 374 q 125 205 213 104 q 301 4 448 4 z"},"w":{"x_min":0,"x_max":894,"ha":894,"o":"m 206 -11 q 161 171 128 290 q 95 408 79 450 l 17 456 l 17 472 q 56 471 75 470 q 94 470 112 470 q 143 470 210 472 l 213 472 l 213 456 l 152 450 q 163 371 187 279 q 210 188 246 89 q 310 176 371 272 q 432 367 490 472 l 501 472 q 507 418 542 327 q 577 236 646 96 q 717 226 758 317 q 798 408 804 450 l 756 456 l 756 472 q 782 471 797 470 q 811 470 824 470 q 837 470 852 470 q 867 471 898 472 l 898 456 l 855 450 q 776 315 720 200 q 664 85 634 -6 l 614 -2 q 598 57 477 336 l 462 371 q 379 261 319 165 q 260 69 227 -7 z"},"-":{"x_min":0,"x_max":431,"ha":431,"o":"m 72 216 l 72 274 q 110 271 144 269 q 178 267 211 267 q 243 267 279 269 q 314 271 357 274 l 357 216 q 310 219 268 221 q 227 223 196 223 q 164 223 133 221 q 102 220 72 216 z"},"E":{"x_min":0,"x_max":609,"ha":609,"o":"m 60 0 l 60 19 l 134 22 q 139 80 142 166 q 145 252 145 356 q 145 456 142 543 q 139 630 134 691 l 60 694 l 60 713 q 156 712 205 711 q 253 711 294 711 q 335 711 385 711 q 434 712 531 713 l 531 605 l 515 605 l 505 656 q 470 672 417 680 q 365 688 289 688 q 260 688 245 688 q 229 688 216 687 q 212 638 209 562 q 207 485 206 376 q 266 376 313 381 q 361 386 397 396 l 405 453 l 421 453 l 421 265 l 405 265 l 397 335 q 360 345 313 350 q 266 355 206 355 q 206 249 208 166 q 210 83 215 25 q 227 24 240 24 q 253 24 279 24 q 363 24 420 33 q 478 43 516 63 l 524 122 l 539 122 l 539 0 q 496 1 447 1 q 397 2 298 2 q 200 2 151 1 q 102 1 60 0 z"},"s":{"x_min":0,"x_max":468,"ha":468,"o":"m 76 10 q 76 31 74 57 q 73 83 69 114 l 86 117 l 87 68 q 115 39 150 23 q 185 8 224 8 q 277 8 308 37 q 338 66 338 118 q 338 161 316 185 q 293 209 236 225 q 227 228 208 232 q 146 248 117 266 q 97 278 87 300 q 77 322 77 352 q 77 416 125 451 q 172 486 259 486 q 286 486 315 483 q 343 479 373 473 q 370 456 369 438 q 367 421 367 404 q 367 394 367 389 q 368 384 368 380 l 354 380 l 354 422 q 341 444 316 456 q 292 467 257 467 q 201 467 167 439 q 134 412 134 366 q 134 324 158 303 q 182 282 262 261 q 270 259 285 255 q 341 243 366 219 q 382 203 390 182 q 398 162 398 136 q 398 64 347 25 q 297 -14 204 -14 q 169 -14 138 -8 q 106 -2 76 10 z"},">":{"x_min":0,"x_max":833,"ha":833,"o":"m 129 554 l 704 318 l 704 278 l 129 43 l 129 96 l 628 298 l 129 501 z"},"l":{"x_min":0,"x_max":315,"ha":315,"o":"m 306 3 q 271 -1 249 -4 q 226 -6 216 -6 q 187 -6 169 -1 q 152 3 139 13 q 125 23 120 41 q 114 59 114 107 l 114 129 q 114 173 117 289 q 120 405 120 477 q 120 578 116 646 q 112 715 105 750 l 25 751 l 25 766 q 35 766 46 765 q 58 765 80 765 q 111 765 137 766 q 163 767 187 769 q 180 697 178 512 q 177 470 177 448 l 175 330 q 175 323 175 310 q 173 233 173 203 q 173 87 192 51 q 211 14 263 14 q 271 14 281 15 q 292 16 306 17 z"},"8":{"x_min":0,"x_max":611,"ha":611,"o":"m 309 8 q 374 8 413 52 q 452 96 452 169 q 452 245 408 294 q 364 343 297 343 q 232 343 190 298 q 148 254 148 185 q 148 107 193 57 q 238 8 309 8 z m 298 365 q 354 365 390 407 q 427 448 427 512 q 427 574 391 615 q 355 656 301 656 q 248 656 215 617 q 182 579 182 516 q 182 447 214 406 q 246 365 298 365 z m 252 354 q 187 363 150 399 q 114 436 114 493 q 114 570 174 624 q 233 677 321 677 q 397 677 445 634 q 493 592 493 525 q 493 467 457 423 q 421 379 356 359 q 433 352 478 306 q 523 261 523 192 q 523 100 455 42 q 388 -16 279 -16 q 190 -16 136 33 q 81 82 81 160 q 81 230 125 281 q 170 331 252 354 z"},"\\":{"x_min":0,"x_max":389,"ha":389,"o":"m 3 729 l 54 729 q 63 689 80 639 q 97 589 131 501 l 290 93 l 294 83 q 338 -31 366 -93 l 316 -93 q 306 -51 289 1 q 271 53 239 134 l 80 544 q 53 615 36 655 q 19 695 3 729 z"},"e":{"x_min":0,"x_max":528,"ha":528,"o":"m 126 329 l 408 329 q 402 393 366 431 q 330 469 275 469 q 219 469 179 432 q 139 395 126 329 z m 479 43 q 443 14 400 0 q 357 -14 306 -14 q 189 -14 117 54 q 45 123 45 233 q 45 342 115 414 q 185 487 289 487 q 372 487 427 437 q 482 388 487 310 l 123 310 q 122 296 121 282 q 120 269 120 256 q 120 145 177 76 q 235 8 327 8 q 363 8 397 20 q 431 32 469 58 z"},"b":{"x_min":0,"x_max":613,"ha":613,"o":"m 137 402 q 201 445 252 465 q 303 485 348 485 q 445 485 506 419 q 567 354 567 247 q 567 195 546 146 q 526 98 488 63 q 448 25 397 5 q 347 -15 293 -15 q 186 -15 130 48 q 74 111 74 231 q 74 256 78 344 q 82 432 82 495 q 82 591 79 654 q 76 717 69 750 l -11 753 l -11 768 q 15 767 28 766 q 41 766 53 766 q 76 766 99 767 q 123 768 147 769 q 142 673 140 582 q 137 490 137 402 z m 127 253 q 127 141 179 74 q 230 7 316 7 q 396 7 448 69 q 501 132 501 228 q 501 328 446 389 q 392 450 304 450 q 215 450 171 401 q 127 352 127 253 z"},"%":{"x_min":0,"x_max":681,"ha":681,"o":"m 638 141 q 638 78 593 35 q 547 -8 481 -8 q 417 -8 375 33 q 333 75 333 139 q 333 204 377 246 q 421 287 490 287 q 553 287 595 245 q 638 203 638 141 z m 490 10 q 532 10 558 40 q 585 69 585 116 q 585 188 557 228 q 528 269 479 269 q 436 269 412 240 q 387 211 387 160 q 387 94 416 52 q 445 10 490 10 z m 198 393 q 240 393 266 423 q 293 452 293 499 q 293 571 265 611 q 236 652 187 652 q 144 652 120 623 q 95 594 95 543 q 95 477 124 435 q 153 393 198 393 z m 347 523 q 347 460 302 418 q 256 375 190 375 q 125 375 84 416 q 42 458 42 522 q 42 587 86 628 q 130 670 199 670 q 262 670 304 627 q 347 585 347 523 z m 292 244 q 283 231 264 205 q 162 64 117 -14 l 68 -14 q 102 27 143 83 q 185 138 264 248 l 388 418 l 403 439 q 514 590 563 676 l 612 676 q 563 617 457 470 q 430 433 416 414 z"},"m":{"x_min":0,"x_max":1056,"ha":1056,"o":"m 50 0 l 50 16 l 131 22 q 132 56 133 92 q 135 128 135 132 l 135 300 q 135 313 133 368 q 132 422 131 456 l 53 456 l 53 472 q 95 473 170 477 q 193 478 204 478 l 197 394 q 252 438 300 460 q 349 481 396 481 q 450 481 491 455 q 533 429 549 384 q 609 434 661 458 q 712 481 762 481 q 841 481 884 434 q 927 387 927 300 q 927 289 926 269 q 925 250 924 222 l 920 125 l 920 82 q 920 49 929 37 q 939 24 967 20 l 1001 16 l 1001 0 q 988 1 972 1 q 957 2 927 2 q 898 2 884 1 q 869 1 857 0 q 862 69 865 119 q 867 170 867 196 l 867 252 q 867 347 829 393 q 791 440 713 440 q 679 440 650 429 q 621 417 593 394 q 574 377 567 359 q 559 341 559 303 l 559 269 l 559 132 q 559 91 560 67 q 561 43 562 22 l 630 16 l 630 0 q 605 1 581 2 q 556 3 531 3 q 506 3 482 2 q 458 1 435 0 l 435 16 l 497 22 q 499 69 499 97 q 500 125 500 132 l 500 252 q 500 347 462 394 q 424 440 347 440 q 313 440 284 429 q 254 417 227 394 q 208 378 200 360 q 193 341 193 303 l 193 269 l 193 132 q 193 123 194 95 q 194 67 196 22 l 277 16 l 277 0 q 250 1 221 2 q 193 3 164 3 q 136 3 108 2 q 79 1 50 0 z"},"#":{"x_min":0,"x_max":769,"ha":769,"o":"m 342 426 l 291 282 l 435 282 l 486 426 z m 387 710 l 443 710 l 359 474 l 503 474 l 587 710 l 642 710 l 558 474 l 712 474 l 695 426 l 541 426 l 491 282 l 657 282 l 639 234 l 473 234 l 390 0 l 335 0 l 418 234 l 275 234 l 191 0 l 136 0 l 219 234 l 57 234 l 75 282 l 236 282 l 287 426 l 112 426 l 129 474 l 304 474 z"},",":{"x_min":0,"x_max":306,"ha":306,"o":"m 89 -155 q 102 -116 109 -82 q 115 -47 115 -14 q 115 0 114 13 q 113 25 111 37 q 125 44 140 53 q 156 63 175 76 l 184 67 q 183 37 166 -16 q 148 -68 116 -141 z"},"n":{"x_min":0,"x_max":711,"ha":711,"o":"m 50 0 l 50 16 l 131 22 q 132 56 133 92 q 135 128 135 132 l 135 300 q 135 313 133 368 q 132 422 131 456 l 53 456 l 53 472 q 95 473 170 477 q 193 478 204 478 l 197 394 q 251 438 302 459 q 354 481 406 481 q 494 481 538 436 q 582 390 582 300 q 582 289 581 270 q 581 250 579 222 l 575 125 l 575 82 q 575 49 584 37 q 594 24 622 20 l 656 16 l 656 0 q 643 1 628 1 q 612 2 582 2 q 553 2 539 1 q 524 1 512 0 q 517 69 520 119 q 522 170 522 196 l 522 252 q 522 350 482 396 q 441 442 357 442 q 320 442 288 430 q 256 418 227 394 q 208 378 200 360 q 193 341 193 303 l 193 269 l 193 132 q 193 123 194 95 q 194 67 196 22 l 277 16 l 277 0 q 250 1 221 2 q 193 3 164 3 q 136 3 108 2 q 79 1 50 0 z"},"h":{"x_min":0,"x_max":704,"ha":704,"o":"m 42 0 l 42 16 l 124 22 q 128 130 130 223 q 132 315 132 380 q 132 508 127 608 q 122 708 113 750 l 42 753 l 42 768 q 67 767 79 766 q 92 766 103 766 q 125 766 147 767 q 169 768 192 769 q 188 707 187 650 q 185 594 185 544 l 185 519 l 185 391 q 241 437 293 459 q 346 481 399 481 q 487 481 531 436 q 575 390 575 300 q 575 289 574 270 q 574 250 572 222 l 568 125 l 568 82 q 568 49 577 37 q 587 24 615 20 l 649 16 l 649 0 q 636 1 620 1 q 605 2 574 2 q 543 2 528 1 q 513 1 500 0 q 507 52 511 102 q 515 151 515 196 l 515 252 q 515 350 475 396 q 434 442 350 442 q 313 442 281 430 q 249 418 220 394 q 201 378 194 360 q 186 341 186 303 l 186 269 l 186 132 q 186 123 187 95 q 188 67 189 22 l 270 16 l 270 0 q 243 1 214 2 q 186 3 157 3 q 128 3 100 2 q 71 1 42 0 z"},"z":{"x_min":0,"x_max":507,"ha":507,"o":"m 48 0 l 45 8 q 150 141 228 249 q 306 357 363 450 q 315 452 283 452 q 250 453 237 453 q 181 453 145 445 q 109 437 83 419 l 81 387 l 69 387 l 69 472 q 102 472 141 471 q 180 471 259 471 q 339 471 380 471 q 420 472 455 472 l 459 466 q 370 361 289 249 q 208 137 138 20 q 141 20 147 20 q 207 18 234 18 q 324 18 373 28 q 422 38 444 60 l 446 92 l 456 92 l 456 0 q 418 0 374 1 q 330 1 244 1 q 161 1 121 1 q 81 0 48 0 z"},"B":{"x_min":0,"x_max":630,"ha":630,"o":"m 216 22 q 248 19 266 18 q 285 17 299 17 q 389 17 435 61 q 482 104 482 189 q 482 279 427 319 q 372 358 244 358 q 238 358 225 357 q 212 357 206 357 q 206 255 208 169 q 211 84 216 22 z m 206 381 q 213 380 222 380 q 230 380 247 380 q 348 380 396 417 q 443 455 443 534 q 443 614 398 654 q 354 693 263 693 q 244 693 234 692 q 225 692 216 691 q 211 631 208 553 q 206 474 206 381 z m 60 0 l 60 19 l 134 22 q 139 80 142 166 q 145 252 145 356 q 145 456 142 543 q 139 630 134 691 l 60 694 l 60 713 q 71 712 83 712 q 96 712 119 712 q 160 712 221 714 q 283 717 302 717 q 403 717 461 672 q 518 628 518 550 q 518 490 479 445 q 440 399 368 375 q 467 364 513 320 q 560 277 560 197 q 560 103 491 49 q 422 -4 299 -4 q 285 -4 229 -1 q 172 2 131 2 q 110 2 63 0 z"},"K":{"x_min":0,"x_max":641,"ha":641,"o":"m 299 713 l 299 694 l 219 691 q 215 658 213 603 q 211 547 209 426 q 322 523 389 590 q 456 657 475 691 l 406 694 l 406 713 l 409 713 q 478 711 513 711 q 532 711 554 711 q 577 712 621 713 l 621 694 l 555 691 q 506 657 433 595 q 359 533 270 450 l 523 133 q 546 104 571 77 q 595 49 621 22 l 682 19 l 682 0 q 668 1 653 1 q 637 2 607 2 q 577 2 563 1 q 548 1 536 0 q 526 14 506 42 q 328 294 209 407 l 209 337 q 209 235 212 155 q 214 74 219 22 l 294 19 l 294 0 q 273 1 249 1 q 225 2 177 2 q 129 2 105 1 q 81 1 60 0 l 60 19 l 134 22 q 139 80 142 166 q 145 252 145 356 q 145 456 142 543 q 139 630 134 691 l 60 694 l 60 713 q 108 712 132 711 q 157 711 177 711 q 198 711 223 711 q 249 712 299 713 z"},"R":{"x_min":0,"x_max":639,"ha":639,"o":"m 299 19 l 299 0 q 277 1 252 1 q 228 2 178 2 q 129 2 105 1 q 81 1 60 0 l 60 19 l 134 22 q 139 80 142 166 q 145 252 145 356 q 145 456 142 543 q 139 630 134 691 l 60 693 l 60 713 q 83 711 105 711 q 127 710 147 710 q 192 710 250 713 q 308 717 320 717 q 424 717 476 675 q 528 633 528 550 q 528 470 470 423 q 412 376 306 371 l 490 143 q 516 111 544 81 q 572 51 603 22 l 652 19 l 652 0 q 640 1 625 1 q 611 2 583 2 q 555 2 541 1 q 527 1 516 0 q 389 173 318 259 q 247 344 206 377 q 206 245 208 158 q 211 71 216 22 z m 206 395 q 222 394 236 393 q 250 392 264 392 q 363 392 410 429 q 458 466 458 542 q 458 619 418 656 q 379 694 297 694 q 283 694 265 693 q 246 692 216 689 q 211 636 208 563 q 206 490 206 395 z"},"T":{"x_min":0,"x_max":595,"ha":595,"o":"m 180 0 l 180 19 l 254 22 q 259 76 261 161 q 264 246 264 356 q 264 460 261 548 q 259 636 254 691 q 184 691 131 683 q 78 676 41 661 l 32 609 l 15 609 l 15 719 q 109 716 187 714 q 264 713 326 713 q 385 713 448 714 q 510 716 577 719 l 577 609 l 562 609 l 554 661 q 517 676 463 684 q 409 691 339 691 q 334 635 331 547 q 328 459 328 356 q 328 249 331 163 q 334 76 339 22 l 413 19 l 413 0 q 393 1 368 1 q 344 2 296 2 q 248 2 224 1 q 201 1 180 0 z"},"P":{"x_min":0,"x_max":579,"ha":579,"o":"m 216 22 l 305 19 l 305 0 q 283 1 257 1 q 232 2 181 2 q 131 2 106 1 q 81 1 60 0 l 60 19 l 134 22 q 139 80 142 166 q 145 252 145 356 q 145 456 142 543 q 139 630 134 691 l 60 694 l 60 713 q 74 712 89 711 q 105 711 135 711 q 181 711 247 715 q 313 719 334 719 q 430 719 482 674 q 534 629 534 548 q 534 432 455 366 q 376 300 236 300 q 231 300 221 300 q 212 301 207 301 l 207 268 q 207 208 209 148 q 211 87 216 22 z m 206 328 l 209 328 q 236 326 249 326 q 354 326 408 374 q 462 422 462 514 q 462 604 415 650 q 368 695 274 695 q 259 695 244 694 q 230 693 216 691 q 211 632 208 543 q 206 454 206 328 z"},"|":{"x_min":0,"x_max":500,"ha":500,"o":"m 224 764 l 277 764 l 277 -236 l 224 -236 z"},"t":{"x_min":0,"x_max":403,"ha":403,"o":"m 122 456 l 34 456 l 34 472 l 122 472 l 122 475 q 124 526 124 551 q 124 560 124 578 q 123 596 123 605 l 191 630 l 180 472 l 363 472 l 309 427 q 296 442 274 449 q 251 456 216 456 l 180 456 l 172 292 q 171 265 170 250 q 170 234 170 221 q 170 117 198 70 q 227 22 288 22 q 303 22 321 26 q 339 30 361 38 l 368 24 q 335 7 307 -1 q 279 -10 255 -10 q 226 -10 199 0 q 172 10 155 27 q 132 50 123 83 q 114 117 114 203 l 114 215 q 114 264 120 400 q 121 437 122 456 z"},"M":{"x_min":0,"x_max":1046,"ha":1046,"o":"m 17 0 l 17 19 l 78 22 q 116 171 145 349 q 174 527 193 729 l 210 729 q 244 634 321 486 q 398 338 540 99 q 650 297 726 454 q 802 611 845 729 l 861 729 l 861 720 q 861 589 884 411 q 906 233 950 22 l 1015 19 l 1015 0 q 997 1 976 1 q 954 2 911 2 q 868 2 846 1 q 825 1 806 0 l 806 19 l 874 22 q 874 77 857 202 q 841 327 804 564 q 743 434 673 296 q 602 158 521 10 l 516 10 q 402 203 329 336 q 256 469 203 578 q 171 392 156 281 q 142 170 142 112 q 142 94 143 75 q 144 56 146 22 l 206 19 l 206 0 q 188 1 168 1 q 148 2 109 2 q 71 2 52 1 q 33 1 17 0 z"},"g":{"x_min":0,"x_max":546,"ha":546,"o":"m 133 326 q 133 256 167 215 q 202 174 260 174 q 321 174 356 213 q 392 252 392 319 q 392 389 358 430 q 324 470 265 470 q 205 470 169 431 q 133 392 133 326 z m 173 176 q 172 168 171 155 q 169 134 169 128 q 169 92 188 78 q 208 65 281 65 q 412 65 462 33 q 512 1 512 -77 q 512 -171 439 -234 q 366 -296 253 -296 q 166 -296 105 -254 q 44 -211 44 -156 q 44 -136 58 -108 q 73 -80 104 -38 l 113 -44 q 103 -68 98 -89 q 93 -109 93 -128 q 93 -195 141 -236 q 189 -276 270 -276 q 348 -276 401 -229 q 453 -182 453 -112 q 453 -43 407 -10 q 360 22 262 22 q 234 22 209 18 q 183 15 158 7 l 135 22 q 142 44 146 74 q 149 105 149 147 q 149 153 148 166 q 148 178 148 185 q 110 206 90 241 q 70 276 70 320 q 70 396 124 441 q 177 486 268 486 q 301 486 332 479 q 363 472 393 457 q 429 458 464 463 q 499 467 534 475 l 522 438 q 503 440 481 441 q 459 442 434 442 l 406 442 q 430 417 443 388 q 455 358 455 326 q 455 249 400 203 q 344 158 249 158 q 226 158 208 162 q 189 167 173 176 z"},"j":{"x_min":0,"x_max":278,"ha":278,"o":"m 113 456 l 35 456 l 35 472 q 78 473 153 477 q 175 478 185 478 q 181 444 179 402 q 177 360 177 305 q 177 229 178 134 q 180 39 180 19 q 180 -102 141 -175 q 102 -248 14 -292 l 9 -275 q 41 -257 64 -229 q 86 -200 99 -161 q 109 -131 114 -90 q 118 -48 118 24 q 118 42 118 84 q 117 127 117 151 q 117 267 116 332 q 115 397 113 456 z m 135 622 q 121 622 113 633 q 106 645 106 667 q 106 689 118 700 q 130 711 153 711 q 168 711 175 701 q 181 691 181 669 q 181 646 169 634 q 157 622 135 622 z"},"i":{"x_min":0,"x_max":324,"ha":324,"o":"m 193 269 l 193 132 q 193 123 194 95 q 194 67 196 22 l 270 16 l 270 0 q 244 1 217 2 q 191 3 164 3 q 137 3 110 2 q 83 1 57 0 l 57 16 l 131 22 q 132 56 133 92 q 135 128 135 132 l 135 300 q 135 313 133 368 q 132 422 131 456 l 53 456 l 53 472 q 94 473 131 474 q 167 476 201 478 q 197 426 195 375 q 193 323 193 269 z m 154 622 q 140 622 132 633 q 125 645 125 667 q 125 689 136 700 q 148 711 171 711 q 186 711 193 701 q 200 691 200 669 q 200 646 188 634 q 176 622 154 622 z"},"y":{"x_min":0,"x_max":593,"ha":593,"o":"m 272 -10 q 196 183 145 296 q 93 410 64 450 l 4 456 l 4 472 q 45 471 65 470 q 85 470 103 470 q 121 470 142 470 q 163 471 203 472 l 203 456 l 144 450 q 179 351 220 257 q 260 162 306 71 l 350 155 q 418 287 446 351 q 473 415 477 450 l 422 456 l 422 472 l 425 472 q 476 470 503 470 q 518 470 534 470 q 551 471 586 472 l 586 456 l 537 450 q 419 264 332 79 q 245 -106 191 -287 q 167 -286 156 -285 q 144 -285 132 -285 q 113 -285 76 -287 q 72 -287 70 -287 l 70 -271 l 137 -265 q 174 -209 203 -156 q 232 -104 253 -54 z"},"@":{"x_min":0,"x_max":986,"ha":986,"o":"m 582 166 q 553 114 515 88 q 476 61 430 61 q 371 61 334 106 q 298 151 298 225 q 298 277 322 329 q 346 381 389 424 q 422 456 459 474 q 497 491 533 491 q 575 491 603 466 q 630 441 641 394 l 668 483 l 732 483 l 649 187 q 644 168 642 157 q 640 146 640 136 q 640 110 653 96 q 666 82 689 82 q 712 82 742 97 q 772 111 798 136 q 843 179 869 243 q 894 307 894 379 q 894 518 799 602 q 705 687 550 687 q 464 687 389 658 q 315 630 257 575 q 192 514 158 431 q 125 348 125 247 q 125 161 152 98 q 180 36 239 -15 q 295 -64 368 -89 q 440 -114 525 -114 q 606 -114 683 -88 q 759 -62 826 -12 l 841 -29 q 769 -82 689 -109 q 608 -136 522 -136 q 430 -136 356 -114 q 282 -91 222 -46 q 148 10 110 89 q 72 167 72 262 q 72 362 114 448 q 156 534 236 600 q 300 654 378 681 q 455 708 544 708 q 712 708 814 617 q 915 525 915 374 q 915 297 887 230 q 858 163 806 115 q 777 88 746 75 q 714 61 682 61 q 635 61 610 87 q 585 114 582 166 z m 534 473 q 507 473 485 458 q 462 443 439 408 q 403 354 382 293 q 361 232 361 185 q 361 138 382 111 q 403 83 438 83 q 471 83 501 105 q 531 126 559 170 q 587 214 604 267 q 620 320 620 365 q 620 412 595 442 q 571 473 534 473 z"},".":{"x_min":0,"x_max":306,"ha":306,"o":"m 116 23 q 116 52 126 63 q 137 75 162 75 q 178 75 184 69 q 190 62 190 42 q 190 14 179 2 q 168 -10 143 -10 q 127 -10 122 -4 q 116 2 116 23 z"},"p":{"x_min":0,"x_max":660,"ha":660,"o":"m 193 400 l 193 63 q 222 37 255 26 q 288 14 334 14 q 428 14 484 77 q 540 140 540 245 q 540 343 488 403 q 436 462 350 462 q 309 462 269 446 q 230 431 193 400 z m 193 -78 q 193 -133 195 -180 q 196 -227 200 -267 l 278 -271 l 278 -287 q 257 -286 233 -286 q 209 -285 162 -285 q 115 -285 92 -286 q 69 -286 50 -287 l 50 -271 l 129 -267 q 132 -227 133 -179 q 135 -132 135 -78 l 135 300 q 135 343 133 382 q 132 421 129 456 l 53 456 l 53 472 q 76 473 123 473 q 170 474 194 474 l 193 427 q 238 457 285 471 q 333 486 380 486 q 484 486 549 421 q 613 357 613 252 q 613 135 542 61 q 472 -12 359 -12 q 314 -12 273 0 q 231 12 193 36 z"},"X":{"x_min":0,"x_max":729,"ha":729,"o":"m 18 0 l 18 16 l 85 22 q 116 52 157 100 q 197 149 241 210 l 344 353 l 236 519 q 198 578 170 619 q 142 660 118 691 l 40 697 l 40 713 l 43 713 q 124 711 164 711 q 186 711 211 711 q 236 712 285 713 l 285 697 l 213 691 q 228 656 251 614 q 274 573 311 516 l 382 406 l 437 484 l 443 493 q 542 634 557 691 l 486 697 l 486 713 q 528 712 549 711 q 571 711 589 711 q 622 711 691 713 l 694 713 l 694 697 l 630 691 q 599 660 564 616 q 529 573 491 520 l 396 386 l 528 186 q 574 117 598 83 q 622 49 645 22 l 717 16 l 717 0 q 698 1 675 1 q 652 2 605 2 q 557 2 532 1 q 508 1 486 0 l 486 16 l 547 22 q 531 60 509 100 q 486 140 459 180 l 358 332 l 290 237 q 238 166 207 112 q 176 58 167 22 l 236 16 l 236 0 q 216 1 193 1 q 170 2 124 2 q 80 2 58 1 q 36 1 18 0 z"},"*":{"x_min":0,"x_max":523,"ha":523,"o":"m 190 413 l 153 435 q 169 458 187 485 q 205 511 236 558 q 203 558 167 556 q 131 554 90 550 l 90 594 q 122 593 155 592 q 188 590 232 587 q 214 616 194 644 q 173 672 151 701 l 189 724 q 207 694 226 663 q 245 632 264 601 q 277 624 293 651 q 309 679 337 729 l 373 706 q 361 689 341 660 q 322 630 295 589 q 324 590 358 592 q 393 593 432 595 l 432 551 q 399 553 364 554 q 329 555 290 555 l 310 528 q 354 467 375 440 l 334 413 q 316 446 283 506 l 262 544 q 241 500 224 469 q 207 438 190 413 z"},"Y":{"x_min":0,"x_max":606,"ha":606,"o":"m 337 323 q 339 183 341 119 q 343 56 347 22 l 421 19 l 421 0 q 400 1 376 1 q 353 2 305 2 q 257 2 233 1 q 208 1 188 0 l 188 19 l 262 22 q 266 56 268 115 q 270 175 272 306 l 218 395 q 182 454 125 547 q 48 675 33 691 l -24 694 l -24 713 q 19 712 43 711 q 66 711 86 711 q 105 711 128 711 q 151 712 197 713 l 197 694 l 125 691 q 146 634 195 547 q 243 460 321 338 l 411 481 q 458 554 480 605 q 503 657 503 689 l 503 691 l 440 694 l 440 713 q 465 711 490 711 q 514 710 538 710 q 562 710 586 711 q 609 711 633 713 l 633 694 l 569 691 q 553 662 490 564 q 451 503 428 467 z"},"c":{"x_min":0,"x_max":502,"ha":502,"o":"m 461 31 q 421 9 378 -3 q 336 -14 292 -14 q 183 -14 114 54 q 45 122 45 230 q 45 343 122 415 q 199 487 320 487 q 349 487 383 482 q 417 477 461 465 q 458 454 457 441 q 455 429 455 415 q 455 401 456 393 q 456 386 457 379 l 445 379 l 441 414 q 409 441 376 454 q 342 467 303 467 q 221 467 169 407 q 117 347 117 251 q 117 145 177 77 q 236 9 328 9 q 354 9 386 18 q 418 27 458 45 z"},"!":{"x_min":0,"x_max":343,"ha":343,"o":"m 159 188 q 148 343 142 472 q 136 601 134 713 l 230 713 l 230 694 l 210 694 q 202 568 196 442 q 190 315 188 188 z m 167 -7 q 150 -7 144 1 q 138 9 138 32 q 138 55 147 65 q 157 74 180 74 q 198 74 204 67 q 210 60 210 41 q 210 15 200 4 q 190 -7 167 -7 z"},"/":{"x_min":0,"x_max":389,"ha":389,"o":"m 367 729 q 344 681 304 580 q 295 556 290 544 l 131 134 q 96 42 79 -6 q 63 -55 54 -93 l 3 -93 q 21 -53 40 -8 q 59 37 80 93 l 239 501 q 274 593 291 642 q 307 690 316 729 z"},"[":{"x_min":0,"x_max":370,"ha":370,"o":"m 202 153 l 202 108 q 202 41 204 0 q 206 -41 210 -75 l 308 -77 l 308 -96 q 293 -95 276 -94 q 259 -94 224 -94 q 189 -94 172 -94 q 155 -95 140 -96 q 143 -63 145 -23 q 146 18 146 78 l 146 539 q 146 600 145 640 q 143 681 140 713 q 174 712 192 711 q 209 711 224 711 q 239 711 256 711 q 273 712 308 713 l 308 694 l 210 692 q 206 658 204 617 q 202 576 202 509 l 202 464 z"},"6":{"x_min":0,"x_max":611,"ha":611,"o":"m 471 676 q 302 509 222 393 q 142 277 142 201 q 142 115 188 61 q 233 7 305 7 q 370 7 410 52 q 449 98 449 173 q 449 262 410 312 q 372 362 303 362 q 291 362 278 359 q 265 357 251 352 l 245 371 q 261 376 278 378 q 294 381 312 381 q 401 381 458 329 q 516 276 516 196 q 516 105 449 46 q 383 -14 282 -14 q 189 -14 132 41 q 74 95 74 183 q 74 210 81 239 q 88 267 103 299 q 113 322 141 357 q 168 393 242 477 l 261 499 q 377 631 400 676 z"},"r":{"x_min":0,"x_max":419,"ha":419,"o":"m 193 211 l 193 132 q 193 123 194 95 q 194 67 196 22 l 277 16 l 277 0 q 250 1 221 2 q 193 3 164 3 q 136 3 108 2 q 79 1 50 0 l 50 16 l 131 22 q 132 56 133 92 q 135 128 135 132 l 135 300 q 135 313 133 368 q 132 422 131 456 l 53 456 l 53 472 q 95 473 170 477 q 193 478 204 478 l 198 353 q 250 416 300 447 q 351 477 404 477 l 416 477 l 416 375 l 405 375 l 405 408 q 391 414 376 417 q 362 420 348 420 q 319 420 294 410 q 269 399 244 377 q 218 353 209 339 q 200 326 198 311 q 195 296 194 272 q 193 249 193 211 z"},"2":{"x_min":0,"x_max":611,"ha":611,"o":"m 71 -7 l 68 0 q 257 221 321 325 q 384 428 384 500 q 384 570 347 611 q 311 652 249 652 q 198 652 168 623 q 138 594 138 546 q 138 538 139 529 q 140 519 141 509 l 128 506 q 123 527 114 547 q 105 567 92 587 q 130 631 177 654 q 224 677 277 677 q 358 677 409 632 q 460 587 460 516 q 460 475 441 433 q 421 391 363 319 q 354 309 279 219 q 204 129 144 58 q 240 59 319 62 q 399 66 461 73 l 468 114 l 483 114 q 477 88 473 60 q 469 31 466 -3 q 390 0 330 2 q 271 4 233 4 q 184 4 144 1 q 104 -1 71 -7 z"},"{":{"x_min":0,"x_max":500,"ha":500,"o":"m 413 740 l 413 716 q 341 715 315 689 q 289 664 289 587 l 289 516 q 289 406 258 366 q 228 325 144 310 q 228 294 258 254 q 289 214 289 104 l 289 33 q 289 -43 315 -69 q 341 -94 413 -95 l 413 -119 l 408 -119 q 303 -119 264 -83 q 225 -48 225 50 l 225 156 q 225 232 196 261 q 167 291 86 297 l 86 324 q 168 332 197 360 q 225 389 225 465 l 225 571 q 225 668 264 704 q 303 740 408 740 z"},"9":{"x_min":0,"x_max":611,"ha":611,"o":"m 137 -14 q 306 152 386 269 q 467 385 467 461 q 467 547 421 601 q 375 655 304 655 q 239 655 199 609 q 159 563 159 488 q 159 402 201 352 q 244 301 314 301 q 325 301 339 303 q 353 306 372 311 l 376 299 q 359 289 336 284 q 313 279 286 279 q 197 279 145 330 q 92 380 92 466 q 92 557 159 616 q 226 676 326 676 q 418 676 476 621 q 534 565 534 478 q 534 449 527 420 q 520 392 506 363 q 496 342 471 309 q 445 275 366 185 l 355 173 q 232 32 208 -14 z"}," ":{"x_min":0,"x_max":306,"ha":306,"o":""},"I":{"x_min":0,"x_max":354,"ha":354,"o":"m 294 713 l 294 694 l 219 691 q 214 640 212 552 q 209 464 209 356 q 209 243 212 158 q 214 72 219 22 l 294 19 l 294 0 q 273 1 249 1 q 225 2 177 2 q 129 2 105 1 q 81 1 60 0 l 60 19 l 134 22 q 139 80 142 166 q 145 252 145 356 q 145 456 142 543 q 139 630 134 691 l 60 694 l 60 713 q 108 712 132 711 q 157 711 177 711 q 197 711 222 711 q 246 712 294 713 z"},"H":{"x_min":0,"x_max":817,"ha":817,"o":"m 60 0 l 60 19 l 134 22 q 139 80 142 166 q 145 252 145 356 q 145 456 142 543 q 139 630 134 691 l 60 694 l 60 713 l 63 713 q 140 711 178 711 q 199 711 223 711 q 248 712 292 713 l 292 694 l 216 691 q 212 640 209 567 q 207 494 206 393 q 285 391 327 390 q 369 389 405 389 q 471 389 608 393 l 611 393 q 610 492 608 565 q 605 639 601 691 l 525 694 l 525 713 l 528 713 q 601 711 639 711 q 676 711 753 713 l 756 713 l 756 694 l 682 691 q 677 640 675 552 q 672 464 672 356 q 672 243 675 158 q 677 72 682 22 l 756 19 l 756 0 q 737 1 713 1 q 690 2 642 2 q 595 2 570 1 q 546 1 525 0 l 525 19 l 601 22 q 606 86 608 173 q 611 260 611 363 q 554 366 504 367 q 454 368 409 368 q 364 368 314 367 q 265 366 206 363 q 206 259 208 172 q 211 85 216 22 l 292 19 l 292 0 q 271 1 247 1 q 223 2 175 2 q 127 2 104 1 q 80 1 60 0 z"},"4":{"x_min":0,"x_max":611,"ha":611,"o":"m 381 233 l 381 547 q 332 488 272 419 q 213 350 112 233 z m 381 194 l 151 194 q 140 194 114 193 q 89 192 47 191 l 47 206 q 184 341 286 462 q 389 583 453 685 l 464 681 q 452 627 446 557 q 440 486 440 390 l 440 233 q 473 233 508 235 q 543 238 581 243 l 537 179 q 529 188 513 191 q 498 195 472 195 q 467 195 457 194 q 446 194 440 194 q 439 186 439 176 q 439 166 439 147 q 439 105 442 69 q 445 34 452 3 q 428 3 405 1 q 382 0 360 -3 l 356 7 l 381 21 z"},"~":{"x_min":0,"x_max":833,"ha":833,"o":"m 747 366 l 747 311 q 697 276 650 259 q 604 241 558 241 q 510 241 431 269 q 421 272 417 274 l 409 277 q 323 308 276 308 q 235 308 190 290 q 146 271 87 230 l 87 285 q 139 321 186 338 q 232 356 276 356 q 327 356 409 326 q 414 324 417 323 q 422 321 433 317 q 514 288 558 288 q 600 288 645 307 q 689 325 747 366 z"},"D":{"x_min":0,"x_max":787,"ha":787,"o":"m 211 22 q 240 20 268 19 q 295 18 320 18 q 487 18 579 104 q 672 189 672 343 q 672 514 565 602 q 458 691 252 691 l 211 691 q 207 646 204 573 q 202 499 202 407 l 202 272 q 202 192 204 130 q 207 67 211 22 z m 60 0 l 60 19 l 134 22 q 139 75 142 138 q 144 201 144 272 l 144 407 q 144 492 141 565 q 139 639 134 691 l 60 694 l 60 713 q 85 711 111 710 q 136 709 164 709 q 202 709 263 711 q 325 714 349 714 q 534 714 637 621 q 740 527 740 361 q 740 193 627 95 q 514 -4 321 -4 q 298 -4 235 -1 q 173 2 133 2 q 104 2 89 1 q 74 1 60 0 z"},"^":{"x_min":0,"x_max":1000,"ha":1000,"o":"m 459 714 l 540 714 l 797 438 l 754 438 l 499 658 l 243 438 l 201 438 z"},"0":{"x_min":0,"x_max":611,"ha":611,"o":"m 305 7 q 396 7 449 92 q 502 176 502 324 q 502 472 447 563 q 392 655 305 655 q 214 655 161 571 q 109 487 109 339 q 109 190 164 99 q 219 7 305 7 z m 567 368 q 567 190 490 88 q 412 -15 279 -15 q 166 -15 105 65 q 44 146 44 294 q 44 471 121 574 q 198 677 330 677 q 444 677 506 597 q 567 518 567 368 z"},"F":{"x_min":0,"x_max":549,"ha":549,"o":"m 214 22 l 297 19 l 297 0 q 276 1 251 1 q 226 2 177 2 q 128 2 104 1 q 80 1 60 0 l 60 19 l 134 22 q 139 80 142 166 q 145 252 145 356 q 145 456 142 543 q 139 630 134 691 l 60 694 l 60 713 l 63 713 q 218 711 292 711 q 333 711 380 711 q 428 712 514 713 l 514 583 l 497 583 l 488 656 q 453 672 403 680 q 352 688 280 688 q 255 688 241 688 q 228 688 216 687 q 211 632 209 563 q 207 494 207 414 l 207 371 q 262 372 305 377 q 348 382 382 391 l 390 448 l 406 448 l 406 260 l 390 260 l 382 330 q 348 339 304 344 q 261 349 206 350 q 206 261 208 180 q 210 100 214 22 z"},"`":{"x_min":0,"x_max":500,"ha":500,"o":"m 299 541 l 283 541 q 260 559 220 603 q 179 647 131 708 l 209 708 q 228 664 250 622 q 273 581 299 541 z"},"k":{"x_min":0,"x_max":583,"ha":583,"o":"m 186 132 q 186 123 187 95 q 188 67 189 22 l 270 16 l 270 0 q 243 1 214 2 q 186 3 157 3 q 128 3 100 2 q 71 1 42 0 l 42 16 l 124 22 q 128 130 130 223 q 132 315 132 380 q 132 508 127 608 q 122 708 113 750 l 42 753 l 42 768 q 67 767 79 766 q 92 766 103 766 q 125 766 147 767 q 169 768 192 769 q 188 707 187 650 q 185 594 185 544 l 185 519 l 185 281 q 284 333 337 375 q 391 417 399 450 l 331 456 l 331 472 q 356 471 381 470 q 407 469 432 469 q 458 469 482 470 q 507 471 532 472 l 532 456 l 480 450 q 461 444 388 391 q 314 337 253 301 q 348 186 415 115 q 482 43 519 22 l 592 16 l 592 0 q 577 1 560 1 q 543 2 510 2 q 477 2 461 1 q 445 1 431 0 q 358 99 302 161 q 246 223 186 274 z"},"u":{"x_min":0,"x_max":692,"ha":692,"o":"m 495 300 q 495 345 494 384 q 494 423 492 456 l 422 456 l 422 472 q 450 473 484 474 q 518 476 558 478 q 555 389 554 356 q 553 324 553 307 l 553 132 q 553 126 555 89 q 556 52 557 22 l 616 16 l 616 0 q 605 1 592 1 q 579 2 554 2 q 528 2 516 1 q 503 1 493 0 l 495 79 q 440 35 387 13 q 333 -9 280 -9 q 231 -9 194 13 q 156 34 141 71 q 131 96 126 129 q 122 162 122 230 l 122 250 l 122 300 q 122 335 121 372 q 120 409 118 456 l 48 456 l 48 472 q 77 473 111 474 q 146 476 185 478 q 182 401 181 365 q 180 328 180 307 l 180 243 q 180 127 214 76 q 248 26 323 26 q 360 26 395 39 q 430 52 461 78 q 480 93 488 111 q 495 129 495 168 l 495 203 z"},"]":{"x_min":0,"x_max":370,"ha":370,"o":"m 170 464 q 170 565 168 611 q 166 656 161 692 l 64 694 l 64 713 l 67 713 q 120 711 147 711 q 162 711 180 711 q 199 712 232 713 q 229 681 228 640 q 226 600 226 539 l 226 78 q 226 18 228 -23 q 229 -63 232 -96 q 217 -95 200 -94 q 182 -94 147 -94 q 113 -94 96 -94 q 79 -95 64 -96 l 64 -77 l 161 -75 q 166 -39 168 6 q 170 52 170 153 z"},"U":{"x_min":0,"x_max":840,"ha":840,"o":"m 121 691 l 47 694 l 47 713 l 50 713 q 123 711 160 711 q 198 711 273 713 l 276 713 l 276 694 l 205 691 q 197 617 194 544 q 190 471 190 376 l 190 349 q 190 241 203 189 q 216 136 246 101 q 284 57 333 35 q 383 13 444 13 q 509 13 561 36 q 613 59 643 101 q 668 137 678 196 q 689 254 689 393 q 689 481 682 554 q 675 626 660 691 l 584 694 l 584 713 l 587 713 q 660 711 696 711 q 716 711 740 711 q 763 712 806 713 l 806 694 l 735 691 q 716 575 714 425 q 711 275 709 250 q 695 113 627 49 q 560 -16 430 -16 q 354 -16 293 5 q 232 26 192 66 q 158 100 142 150 q 127 201 127 281 q 127 301 128 365 q 130 428 130 471 q 130 544 128 597 q 125 649 121 691 z"},"o":{"x_min":0,"x_max":630,"ha":630,"o":"m 323 6 q 411 6 462 62 q 514 119 514 215 q 514 328 457 397 q 399 467 307 467 q 220 467 168 408 q 115 350 115 252 q 115 145 174 75 q 233 6 323 6 z m 583 236 q 583 124 507 55 q 432 -14 307 -14 q 190 -14 118 55 q 46 124 46 236 q 46 348 122 417 q 197 487 320 487 q 439 487 511 418 q 583 350 583 236 z"},"N":{"x_min":0,"x_max":833,"ha":833,"o":"m 161 344 q 161 211 166 137 q 170 62 181 21 l 256 18 l 256 0 q 240 0 220 1 q 201 1 163 1 q 117 1 93 0 q 70 0 50 -1 l 50 17 l 118 21 q 128 83 133 165 q 138 246 138 357 l 138 525 q 138 582 136 630 q 135 678 131 719 l 145 719 q 243 568 375 413 q 507 257 673 97 l 673 366 q 673 498 668 572 q 664 646 653 689 l 577 692 l 577 711 l 580 711 q 641 709 672 709 q 700 709 727 710 q 755 710 783 712 l 783 693 l 716 689 q 707 638 702 555 q 697 472 697 353 l 697 132 q 697 95 699 55 q 702 16 706 -24 l 697 -26 q 492 187 365 330 q 238 472 161 575 z"},"+":{"x_min":0,"x_max":833,"ha":833,"o":"m 393 596 l 441 596 l 441 322 l 709 322 l 709 274 l 441 274 l 441 0 l 393 0 l 393 274 l 124 274 l 124 322 l 393 322 z"},"G":{"x_min":0,"x_max":757,"ha":757,"o":"m 664 17 q 585 0 526 -8 q 466 -16 428 -16 q 251 -16 148 79 q 46 175 46 339 q 46 520 157 625 q 269 730 461 730 q 494 730 533 727 q 571 723 616 716 l 616 594 l 600 594 l 600 654 q 558 680 513 692 q 468 705 420 705 q 282 705 202 613 q 123 521 123 359 q 123 283 146 216 q 170 149 214 101 q 259 52 312 29 q 365 6 434 6 q 472 6 510 13 q 548 21 587 35 q 589 54 590 97 q 591 139 591 213 q 591 229 590 247 q 588 264 586 282 l 503 287 l 503 303 q 549 300 571 300 q 594 299 612 299 q 632 299 655 300 q 679 301 718 303 l 718 287 l 661 282 q 657 265 656 235 q 654 205 654 145 q 654 108 656 76 q 659 44 664 17 z"},"q":{"x_min":0,"x_max":660,"ha":660,"o":"m 465 474 q 486 474 534 473 q 581 473 606 472 l 606 456 l 530 456 q 527 421 525 382 q 524 343 524 300 l 524 -78 q 524 -146 525 -189 q 527 -233 530 -267 l 609 -271 l 609 -287 q 590 -286 567 -286 q 544 -285 497 -285 q 450 -285 426 -286 q 402 -286 381 -287 l 381 -271 l 459 -267 q 462 -226 464 -179 q 466 -132 466 -78 l 466 36 q 421 11 374 -1 q 326 -14 278 -14 q 171 -14 108 50 q 46 115 46 225 q 46 345 113 415 q 179 486 291 486 q 334 486 377 472 q 419 458 466 427 z m 466 58 l 466 402 q 418 436 379 451 q 339 467 301 467 q 216 467 166 409 q 115 351 115 252 q 115 147 175 81 q 235 15 330 15 q 364 15 396 25 q 429 36 466 58 z"},"d":{"x_min":0,"x_max":660,"ha":660,"o":"m 466 72 l 466 409 q 434 437 391 452 q 348 467 302 467 q 213 467 163 407 q 114 348 114 239 q 114 135 167 73 q 220 10 308 10 q 350 10 389 25 q 429 41 466 72 z m 466 46 q 419 16 372 1 q 325 -14 276 -14 q 170 -14 108 50 q 46 115 46 225 q 46 345 113 416 q 181 486 296 486 q 342 486 384 473 q 426 461 466 436 l 466 574 q 466 650 464 688 q 461 726 456 750 l 376 753 l 376 768 q 402 767 415 766 q 428 766 440 766 q 463 766 487 767 q 511 768 535 769 q 530 689 527 591 q 524 492 524 378 l 524 172 q 524 117 525 82 q 527 47 530 22 l 606 16 l 606 0 q 594 1 579 1 q 563 2 534 2 q 505 2 491 1 q 478 1 466 0 z"},"1":{"x_min":0,"x_max":611,"ha":611,"o":"m 280 635 q 250 628 227 623 q 204 619 182 615 l 182 635 q 229 644 271 654 q 312 664 352 676 q 345 613 342 531 q 339 448 339 333 q 339 289 341 207 q 343 124 347 22 l 416 16 l 416 0 q 388 1 361 2 q 334 3 307 3 q 281 3 255 2 q 229 1 204 0 l 204 16 l 274 22 q 277 118 279 206 q 281 294 281 371 l 281 412 q 281 522 281 565 q 281 607 280 635 z"},"5":{"x_min":0,"x_max":611,"ha":611,"o":"m 107 -19 l 116 49 l 130 49 l 130 28 q 148 16 168 10 q 188 4 212 4 q 304 4 363 64 q 422 125 422 219 q 422 316 370 378 q 318 439 237 439 q 220 439 198 434 q 177 430 148 420 l 137 429 l 145 444 q 146 475 146 492 q 147 509 147 524 q 147 555 146 588 q 145 622 142 662 q 222 660 304 657 q 386 655 391 655 q 406 655 423 656 q 439 657 458 659 l 471 668 l 485 661 q 470 647 458 630 q 446 612 437 592 l 428 594 l 425 611 q 391 622 338 627 q 286 632 207 633 q 205 599 203 569 q 202 539 202 511 q 202 488 202 477 q 203 465 203 456 q 222 459 241 461 q 260 463 279 463 q 378 463 433 410 q 488 356 488 261 q 488 196 460 142 q 433 88 378 45 q 333 10 278 -8 q 222 -26 160 -26 q 145 -26 131 -24 q 118 -22 107 -19 z"}}}
